HIERARCHY
ROOT Hips
{
	OFFSET 0.000000 88.474243 0.000000
	CHANNELS 6 Xposition Yposition Zposition Zrotation Yrotation Xrotation 
	JOINT Hips_Spine
	{
		OFFSET 0.000000 0.000000 0.000000
		CHANNELS 3 Zrotation Yrotation Xrotation
		JOINT Spine
		{
			OFFSET 0.005100 8.711998 -0.691000
			CHANNELS 3 Zrotation Yrotation Xrotation
			JOINT Spine1
			{
				OFFSET -0.009200 8.660301 -1.275000
				CHANNELS 3 Zrotation Yrotation Xrotation
				JOINT Spine2
				{
					OFFSET 0.006300 9.852501 -1.857000
					CHANNELS 3 Zrotation Yrotation Xrotation
					JOINT Spine2_Neck
					{
						OFFSET 0.000000 0.000000 0.000000
						CHANNELS 3 Zrotation Yrotation Xrotation
						JOINT Neck
						{
							OFFSET 0.016300 11.420799 -0.263300
							CHANNELS 3 Zrotation Yrotation Xrotation
							End Site #name: Head
							{
								OFFSET -0.019200 9.262405 2.362500
							}
						}
					}
					JOINT Spine2_LeftShoulder
					{
						OFFSET 0.000000 0.000000 0.000000
						CHANNELS 3 Zrotation Yrotation Xrotation
						JOINT LeftShoulder
						{
							OFFSET 5.616900 6.732201 -0.345700
							CHANNELS 3 Zrotation Yrotation Xrotation
							JOINT LeftArm
							{
								OFFSET 10.664888 -0.183372 -2.440700
								CHANNELS 3 Zrotation Yrotation Xrotation
								JOINT LeftForeArm
								{
									OFFSET 27.459126 0.000000 0.000000
									CHANNELS 3 Zrotation Yrotation Xrotation
									End Site #name: LeftHand
									{
										OFFSET 21.306858 0.000000 0.000000
									}
								}
							}
						}
					}
					JOINT Spine2_RightShoulder
					{
						OFFSET 0.000000 0.000000 0.000000
						CHANNELS 3 Zrotation Yrotation Xrotation
						JOINT RightShoulder
						{
							OFFSET -5.580300 6.737503 -0.344400
							CHANNELS 3 Zrotation Yrotation Xrotation
							JOINT RightArm
							{
								OFFSET -10.679335 -0.188484 -2.383900
								CHANNELS 3 Zrotation Yrotation Xrotation
								JOINT RightForeArm
								{
									OFFSET -27.503529 0.000000 0.000000
									CHANNELS 3 Zrotation Yrotation Xrotation
									End Site #name: RightHand
									{
										OFFSET -21.306808 0.000000 0.000000
									}
								}
							}
						}
					}
				}
			}
		}
	}
	JOINT Hips_LeftUpLeg
	{
		OFFSET 0.000000 0.000000 0.000000
		CHANNELS 3 Zrotation Yrotation Xrotation
		JOINT LeftUpLeg
		{
			OFFSET 6.857700 -6.739601 0.312100
			CHANNELS 3 Zrotation Yrotation Xrotation
			JOINT LeftLeg
			{
				OFFSET -0.367590 -34.731552 -4.572400
				CHANNELS 3 Zrotation Yrotation Xrotation
				End Site #name: LeftFoot
				{
					OFFSET 0.367590 -34.656704 -6.067400
				}
			}
		}
	}
	JOINT Hips_RightUpLeg
	{
		OFFSET 0.000000 0.000000 0.000000
		CHANNELS 3 Zrotation Yrotation Xrotation
		JOINT RightUpLeg
		{
			OFFSET -6.876100 -6.733299 0.301000
			CHANNELS 3 Zrotation Yrotation Xrotation
			JOINT RightLeg
			{
				OFFSET 0.347353 -34.795158 -4.515900
				CHANNELS 3 Zrotation Yrotation Xrotation
				End Site #name: RightFoot
				{
					OFFSET -0.347353 -34.589367 -6.070300
				}
			}
		}
	}
}
MOTION
Frames: 6
Frame Time: 0.041667
0.056827 0.007653 0.012840 -1.022868 -3.734908 -1.942989 0.000000 0.000000 0.000000 0.845028 1.320469 8.318487 -0.776200 0.911987 0.346171 0.000000 0.000000 0.000000 -0.349662 0.024694 -1.935268 1.209512 -1.782390 4.691737 -1.586755 -0.166666 0.004594 -4.867628 -6.072363 1.517212 -64.315357 3.699643 42.812573 0.171464 -24.049943 -0.309672 -0.533823 0.632237 0.373431 10.929572 -2.484663 1.867523 61.234291 24.618919 18.269911 178.933323 64.142658 179.772821 0.000000 0.000000 0.000000 -0.294210 8.135637 -16.672250 3.902614 5.300851 19.480439 0.000000 0.000000 0.000000 -1.771470 -9.998087 -11.242121 -1.770153 -3.217653 17.212884 
0.080743 0.053498 -0.044440 -1.144459 -3.456574 -1.706541 0.000000 0.000000 0.000000 -0.396639 0.472951 4.138558 -0.856416 0.559839 1.083095 0.000000 0.000000 0.000000 -0.627463 -0.196424 0.107499 3.074350 -1.464593 5.576345 -0.555712 -0.219188 0.946342 -3.796181 1.891064 0.276477 -61.486851 5.824444 47.679187 0.157928 -20.131318 0.273910 -1.187844 -0.045872 0.856849 9.794617 -1.490478 0.749697 58.559743 32.578459 3.606575 179.240906 51.307005 179.818084 0.000000 0.000000 -0.000000 0.396105 9.992608 -15.931706 3.134171 5.412744 17.961532 0.000000 0.000000 0.000000 -1.879180 -10.235207 -11.619540 -1.851065 -3.204395 16.941263 
0.186722 0.049142 -0.106623 -1.431744 -3.401321 -1.506216 0.000000 0.000000 0.000000 -0.482484 0.312050 3.547003 -0.702375 0.305739 1.690627 0.000000 0.000000 0.000000 -0.812354 -0.258096 0.514847 2.970628 -1.297358 4.965404 -0.838575 0.061172 2.146617 -5.948024 4.131517 -0.118666 -62.161623 2.858490 42.213406 0.070716 -14.570504 0.084140 -1.143860 0.003617 1.428716 10.050830 -2.051401 0.357937 53.607689 27.731564 0.484863 179.453565 53.004134 -179.936172 0.000000 0.000000 -0.000000 0.867404 11.181627 -16.316666 3.252816 5.531272 18.132997 -0.000000 0.000000 0.000000 -1.698645 -10.078734 -11.774848 -1.488764 -3.059451 16.675780 
0.317806 0.037750 -0.173835 -1.704763 -3.374274 -1.317546 0.000000 0.000000 0.000000 -0.701615 0.579421 3.936321 -0.782198 0.184860 2.373919 0.000000 0.000000 0.000000 -0.903190 -0.234212 1.162272 2.050383 -1.710980 6.107090 -1.018650 -0.046464 2.384463 -5.519088 5.206561 -0.443426 -64.948004 0.060992 39.229986 0.055408 -11.266903 0.122155 -1.145619 -0.022140 1.930559 9.297074 -2.530545 0.332779 50.085129 30.964014 -3.413154 179.377102 48.090190 -179.846964 -0.000000 0.000000 -0.000000 1.106149 11.746963 -16.657003 3.488919 5.621695 18.312550 -0.000000 0.000000 0.000000 -1.547566 -9.987012 -11.925872 -1.018436 -2.532856 16.710508 
0.472936 0.030394 -0.238059 -1.921518 -3.420618 -1.196531 0.000000 0.000000 0.000000 -0.885057 0.822846 4.361733 -1.001778 0.143085 2.518468 0.000000 0.000000 0.000000 -1.155575 -0.253613 1.297223 1.802268 -2.127765 7.410347 -1.184788 -0.221168 2.416758 -4.954747 5.571636 -0.495610 -66.774710 -1.881033 37.712828 0.053171 -9.659836 0.119880 -1.366919 -0.064142 2.184366 9.168541 -3.269281 0.279100 48.790976 34.704170 -5.453511 179.433532 44.133794 -179.761635 -0.000000 0.000000 -0.000000 1.242484 12.012977 -16.913143 3.583656 5.532437 18.616353 -0.000000 0.000000 0.000000 -1.482617 -9.795027 -12.012509 -0.637789 -2.257358 16.755388 
0.634234 0.025721 -0.298600 -2.068004 -3.508026 -1.122418 0.000000 -0.000000 0.000000 -1.053844 0.883011 4.573273 -1.207440 0.150067 2.556624 0.000000 0.000000 0.000000 -1.353734 -0.275243 1.349088 2.044591 -2.432199 8.259777 -1.307185 -0.337783 2.494933 -4.560534 5.405593 -0.451693 -68.134171 -2.994872 36.846895 0.084720 -8.777220 0.100531 -1.562499 -0.111994 2.230486 8.909572 -3.288371 0.293473 48.334038 36.759491 -6.662911 179.403416 42.703146 -179.722791 -0.000000 0.000000 -0.000000 1.318588 12.125305 -17.081088 3.580776 5.355572 18.907252 -0.000000 0.000000 0.000000 -1.433418 -9.613435 -12.005643 -0.406617 -2.102261 16.634825 
